<svg xmlns="http://www.w3.org/2000/svg" version="1.1" width="256" height="256" viewBox="0 0 256 256">
<defs>
<clipPath id="hero_althea-clip">
<circle cx="128" cy="128" r="120"/>
</clipPath>
</defs>
<g clip-path="url(#hero_althea-clip)">
<circle cx="128" cy="128" r="120" fill="#655032" stroke="none" stroke-width="1"/>
<path d="M8 150 Q20 28 129 8 Q70 44 57 128 Q46 192 8 203Z" fill="#ffffff" stroke="none" stroke-width="0" stroke-linejoin="round" stroke-linecap="round" opacity="0.04"/>
<circle cx="128" cy="107" r="70" fill="#9e7937" stroke="none" stroke-width="1"/>
<circle cx="128" cy="107" r="62" fill="#6b542f" stroke="none" stroke-width="1"/>
<path d="M27 256 Q29 203 72 184 L106 171 H149 L187 185 Q226 200 234 256Z" fill="#d7d4c7" stroke="#0f172a" stroke-width="3" stroke-linejoin="round" stroke-linecap="round" />
<path d="M33 252 Q39 208 77 194 L105 181 L114 204 L83 216 L72 256Z" fill="#f0ece0" stroke="#0f172a" stroke-width="0" stroke-linejoin="round" stroke-linecap="round" />
<path d="M80 188 L99 181 L127 204 L152 179 L172 188 L163 256 H89Z" fill="#e9e3d3" stroke="#0f172a" stroke-width="2" stroke-linejoin="round" stroke-linecap="round" />
<path d="M81 146 Q68 85 95 57 Q122 30 155 53 Q190 83 171 154 L157 166 H95Z" fill="#b98736" stroke="#0f172a" stroke-width="3" stroke-linejoin="round" stroke-linecap="round" />
<path d="M109 159 L106 188 Q127 202 150 187 L146 159Z" fill="#bb8672" stroke="#0f172a" stroke-width="2" stroke-linejoin="round" stroke-linecap="round" />
<path d="M91 85 Q126 64 161 86 L167 128 Q165 158 145 173 L129 181 L110 173 Q88 157 86 128Z" fill="#e5b89d" stroke="#0f172a" stroke-width="2.5" stroke-linejoin="round" stroke-linecap="round" />
<path d="M145 84 Q158 107 151 140 L139 163 L128 177 L145 173 Q165 155 167 129 L161 86Z" fill="#bb8672" stroke="#0f172a" stroke-width="0" stroke-linejoin="round" stroke-linecap="round" />
<path d="M94 105 Q92 91 114 88" fill="#f4d4b5" stroke="#f4d4b5" stroke-width="2" stroke-linejoin="round" stroke-linecap="round" />
<path d="M96 117 Q106 114 118 119 Q108 126 97 123Z" fill="#ede5d3" stroke="#0f172a" stroke-width="1.8" stroke-linejoin="round" stroke-linecap="round" />
<path d="M138 119 Q149 114 160 117 L158 123 Q149 126 138 119Z" fill="#ede5d3" stroke="#0f172a" stroke-width="1.8" stroke-linejoin="round" stroke-linecap="round" />
<ellipse cx="109" cy="121" rx="3.5" ry="4" fill="#658581" stroke="none" stroke-width="1"/>
<ellipse cx="148" cy="121" rx="3.5" ry="4" fill="#658581" stroke="none" stroke-width="1"/>
<circle cx="109" cy="121" r="1.8" fill="#0f172a" stroke="none" stroke-width="1"/>
<circle cx="148" cy="121" r="1.8" fill="#0f172a" stroke="none" stroke-width="1"/>
<circle cx="108" cy="120" r="1" fill="#ffffff" stroke="none" stroke-width="1"/>
<circle cx="147" cy="120" r="1" fill="#ffffff" stroke="none" stroke-width="1"/>
<path d="M128 119 L123 140 Q129 144 135 138" fill="none" stroke="#925f55" stroke-width="1.7" stroke-linejoin="round" stroke-linecap="round" />
<path d="M115 154 Q129 163 143 152" fill="none" stroke="#704743" stroke-width="2" stroke-linejoin="round" stroke-linecap="round" />
<path d="M95 111 L117 108 M139 108 L159 112" fill="none" stroke="#946329" stroke-width="2" stroke-linejoin="round" stroke-linecap="round" />
<path d="M83 110 Q75 67 116 48 Q146 35 171 70 L171 111 L157 99 L143 68 Q117 94 87 94Z" fill="#dbad50" stroke="#0f172a" stroke-width="2" stroke-linejoin="round" stroke-linecap="round" />
<path d="M90 85 Q97 55 132 51 L145 56 Q126 58 111 78Z" fill="#f1ce75" stroke="#0f172a" stroke-width="0" stroke-linejoin="round" stroke-linecap="round" />
<path d="M146 70 Q157 80 164 102" fill="none" stroke="#f1ce75" stroke-width="3" stroke-linejoin="round" stroke-linecap="round" />
<!-- Das Seitenhaar läuft ohne Unterbrechung hinter dem Ohr in den Zopf. -->
<path d="M157 83 Q177 96 177 126 Q178 140 184 151 Q189 161 179 175 L166 176 Q159 165 163 150 Q170 134 166 119 Q162 102 157 83Z" fill="#d5a146" stroke="#0f172a" stroke-width="2" stroke-linejoin="round"/>
<path d="M161 92 Q170 106 170 123 Q172 140 176 149" fill="none" stroke="#f1ce75" stroke-width="3" stroke-linecap="round"/>
<path d="M176 145 Q162 150 164 161 Q162 166 168 173 Q161 180 167 188 Q162 196 169 203 Q164 211 171 218 L183 221 Q192 215 187 205 Q193 197 187 190 Q193 182 186 174 Q193 165 186 158 Q188 150 176 145Z" fill="#d5a146" stroke="#0f172a" stroke-width="2" stroke-linejoin="round"/>
<path d="M166 152 Q170 147 178 149 L185 157 L175 164 L166 159Z M167 174 L177 167 L185 175 L175 183 L167 180Z M168 190 L178 183 L185 191 L177 199 L169 197Z M171 205 L179 199 L186 207 L181 216 L173 214Z" fill="#f1ce75"/>
<path d="M166 159 L184 171 M168 175 L185 187 M170 192 L186 204 M173 208 L184 218" fill="none" stroke="#946329" stroke-width="2" stroke-linecap="round"/>
<path d="M171 224 L169 235 L176 243 L185 234 L184 224Z" fill="#dbad50" stroke="#0f172a" stroke-width="2" stroke-linejoin="round"/>
<path d="M175 229 L175 238" fill="none" stroke="#f1ce75" stroke-width="2" stroke-linecap="round"/>
<rect x="169" y="218" width="17" height="8" rx="2" fill="#c9a227" stroke="#0f172a" stroke-width="1"/>
<path d="M172 220 H182" fill="none" stroke="#e0c25a" stroke-width="2" stroke-linecap="round"/>
<path d="M101 181 Q124 222 153 180" fill="none" stroke="#c9a227" stroke-width="2" stroke-linejoin="round" stroke-linecap="round" />
<circle cx="128" cy="225" r="13" fill="#c9a227" stroke="#0f172a" stroke-width="2"/>
<circle cx="128" cy="225" r="7" fill="#e0c25a" stroke="none" stroke-width="1"/>
<path d="M145.0 225.0 L150.0 225.0" fill="none" stroke="#c9a227" stroke-width="2" stroke-linejoin="round" stroke-linecap="round" />
<path d="M140.0 237.0 L143.6 240.6" fill="none" stroke="#c9a227" stroke-width="2" stroke-linejoin="round" stroke-linecap="round" />
<path d="M128.0 242.0 L128.0 247.0" fill="none" stroke="#c9a227" stroke-width="2" stroke-linejoin="round" stroke-linecap="round" />
<path d="M116.0 237.0 L112.4 240.6" fill="none" stroke="#c9a227" stroke-width="2" stroke-linejoin="round" stroke-linecap="round" />
<path d="M111.0 225.0 L106.0 225.0" fill="none" stroke="#c9a227" stroke-width="2" stroke-linejoin="round" stroke-linecap="round" />
<path d="M116.0 213.0 L112.4 209.4" fill="none" stroke="#c9a227" stroke-width="2" stroke-linejoin="round" stroke-linecap="round" />
<path d="M128.0 208.0 L128.0 203.0" fill="none" stroke="#c9a227" stroke-width="2" stroke-linejoin="round" stroke-linecap="round" />
<path d="M140.0 213.0 L143.6 209.4" fill="none" stroke="#c9a227" stroke-width="2" stroke-linejoin="round" stroke-linecap="round" />
</g>
</svg>
