<svg xmlns="http://www.w3.org/2000/svg" version="1.1" width="256" height="256" viewBox="0 0 256 256">
<defs>
<clipPath id="monster_kobold-clip">
<circle cx="128" cy="128" r="120"/>
</clipPath>
</defs>
<g clip-path="url(#monster_kobold-clip)">
<circle cx="128" cy="128" r="120" fill="#49392e" stroke="none" stroke-width="1"/>
<path d="M8 150 Q20 28 129 8 Q70 44 57 128 Q46 192 8 203Z" fill="#ffffff" stroke="none" stroke-width="0" stroke-linejoin="round" stroke-linecap="round" opacity="0.04"/>
<path d="M27 256 Q29 203 72 184 L106 171 H149 L187 185 Q226 200 234 256Z" fill="#7d3e2d" stroke="#0f172a" stroke-width="3" stroke-linejoin="round" stroke-linecap="round" />
<path d="M33 252 Q39 208 77 194 L105 181 L114 204 L83 216 L72 256Z" fill="#a65939" stroke="#0f172a" stroke-width="0" stroke-linejoin="round" stroke-linecap="round" />
<path d="M184 233 L204 63" fill="none" stroke="#6b4a2f" stroke-width="7" stroke-linejoin="round" stroke-linecap="round" />
<path d="M199 71 L197 44 L211 27 L216 52 L207 75Z" fill="#9aa3ad" stroke="#0f172a" stroke-width="2" stroke-linejoin="round" stroke-linecap="round" />
<path d="M89 87 L76 44 L100 58 L111 94 M149 91 L159 45 L177 38 L171 88" fill="#d7c59d" stroke="#0f172a" stroke-width="2" stroke-linejoin="round" stroke-linecap="round" />
<path d="M76 102 L101 74 L133 68 L161 88 L176 125 L163 170 L132 192 L102 178 L78 145Z" fill="#a95939" stroke="#0f172a" stroke-width="3" stroke-linejoin="round" stroke-linecap="round" />
<path d="M78 113 L104 84 L124 78 L115 120 L91 150Z" fill="#ca7950" stroke="#0f172a" stroke-width="0" stroke-linejoin="round" stroke-linecap="round" />
<path d="M141 80 L166 115 L159 148 L139 159 L131 185 L158 173 L176 127 L162 92Z" fill="#7d3e2d" stroke="#0f172a" stroke-width="0" stroke-linejoin="round" stroke-linecap="round" />
<path d="M96 117 Q106 111 118 119 Q108 126 97 123Z" fill="#ede5d3" stroke="#0f172a" stroke-width="1.8" stroke-linejoin="round" stroke-linecap="round" />
<path d="M138 119 Q149 114 160 117 L158 123 Q149 126 138 119Z" fill="#ede5d3" stroke="#0f172a" stroke-width="1.8" stroke-linejoin="round" stroke-linecap="round" />
<ellipse cx="109" cy="121" rx="3.5" ry="4" fill="#e0c25a" stroke="none" stroke-width="1"/>
<ellipse cx="148" cy="121" rx="3.5" ry="4" fill="#e0c25a" stroke="none" stroke-width="1"/>
<circle cx="109" cy="121" r="1.8" fill="#0f172a" stroke="none" stroke-width="1"/>
<circle cx="148" cy="121" r="1.8" fill="#0f172a" stroke="none" stroke-width="1"/>
<circle cx="108" cy="120" r="1" fill="#ffffff" stroke="none" stroke-width="1"/>
<circle cx="147" cy="120" r="1" fill="#ffffff" stroke="none" stroke-width="1"/>
<path d="M100 139 L123 128 L148 137 L158 155 L146 172 L112 171 L93 158Z" fill="#b96d46" stroke="#0f172a" stroke-width="2" stroke-linejoin="round" stroke-linecap="round" />
<path d="M103 155 Q127 166 151 154" fill="none" stroke="#0f172a" stroke-width="2" stroke-linejoin="round" stroke-linecap="round" />
<circle cx="110" cy="145" r="2" fill="#0f172a" stroke="none" stroke-width="1"/>
<circle cx="143" cy="145" r="2" fill="#0f172a" stroke="none" stroke-width="1"/>
<path d="M110 160 L114 168 L118 162 M139 161 L144 167 L147 158" fill="#e3d6b4" stroke="#0f172a" stroke-width="1" stroke-linejoin="round" stroke-linecap="round" />
<path d="M118 84 L127 69 L139 84 L128 99Z" fill="#7d3e2d" stroke="#0f172a" stroke-width="1" stroke-linejoin="round" stroke-linecap="round" />
<path d="M83 128 l3 3 3 -3" fill="none" stroke="#7d3e2d" stroke-width="1.5" stroke-linejoin="round" stroke-linecap="round" />
<path d="M89 137 l3 3 3 -3" fill="none" stroke="#7d3e2d" stroke-width="1.5" stroke-linejoin="round" stroke-linecap="round" />
<path d="M158 130 l3 3 3 -3" fill="none" stroke="#7d3e2d" stroke-width="1.5" stroke-linejoin="round" stroke-linecap="round" />
<path d="M153 144 l3 3 3 -3" fill="none" stroke="#7d3e2d" stroke-width="1.5" stroke-linejoin="round" stroke-linecap="round" />
<path d="M115 181 l3 3 3 -3" fill="none" stroke="#7d3e2d" stroke-width="1.5" stroke-linejoin="round" stroke-linecap="round" />
<path d="M135 178 l3 3 3 -3" fill="none" stroke="#7d3e2d" stroke-width="1.5" stroke-linejoin="round" stroke-linecap="round" />
</g>
</svg>
