<svg xmlns="http://www.w3.org/2000/svg" width="64" height="64" viewBox="0 0 64 64">
  <rect width="64" height="64" fill="#1e222b"/>
  <!-- Wide Top Slab -->
  <rect x="2" y="2" width="60" height="28" fill="#3b4252" stroke="#0f172a" stroke-width="1"/>
  <path d="M2 2 H62 V5 H5 V30 H2 Z" fill="#5e6779" opacity="0.6"/>
  <path d="M59 5 H62 V30 H5 V27 H59 Z" fill="#2b2f3a" opacity="0.6"/>
  <circle cx="24" cy="14" r="1.5" fill="#2b2f3a"/>
  <circle cx="48" cy="18" r="1.5" fill="#2b2f3a"/>

  <!-- Bottom-Left Slab -->
  <rect x="2" y="34" width="28" height="28" fill="#4c566a" stroke="#0f172a" stroke-width="1"/>
  <path d="M2 34 H30 V37 H5 V62 H2 Z" fill="#5e6779" opacity="0.6"/>
  <path d="M27 37 H30 V62 H5 V59 H27 Z" fill="#2b2f3a" opacity="0.6"/>

  <!-- Bottom-Right Slab -->
  <rect x="34" y="34" width="28" height="28" fill="#3b4252" stroke="#0f172a" stroke-width="1"/>
  <path d="M34 34 H62 V37 H37 V62 H34 Z" fill="#5e6779" opacity="0.6"/>
  <path d="M59 37 H62 V62 H37 V59 H59 Z" fill="#2b2f3a" opacity="0.7"/>

  <!-- Moss in central joints -->
  <path d="M14 31 Q20 29 26 31 Q32 33 38 31" stroke="#2f4a2a" stroke-width="3" fill="none"/>
  <path d="M16 31 Q21 30 25 32 Q30 33 36 31" stroke="#3f6b35" stroke-width="2" fill="none"/>
  <circle cx="22" cy="31" r="2.5" fill="#4f7f3f"/>
  <circle cx="33" cy="32" r="2" fill="#3f6b35"/>
  <circle cx="32" cy="39" r="2" fill="#2f4a2a"/>
  <circle cx="33" cy="45" r="1.5" fill="#3f6b35"/>

  <!-- Stone Crumbs / Pebbles -->
  <circle cx="10" cy="32" r="1.5" fill="#6b6f75"/>
  <circle cx="44" cy="32" r="1.2" fill="#4a4e55"/>
  <circle cx="32" cy="52" r="1.5" fill="#6b6f75"/>
</svg>
