<svg xmlns="http://www.w3.org/2000/svg" width="64" height="64" viewBox="0 0 64 64">
  <!-- Shadows -->
  <ellipse cx="23" cy="25" rx="13" ry="10" fill="#0f172a" opacity="0.3"/>
  <ellipse cx="45" cy="33" rx="14" ry="11" fill="#0f172a" opacity="0.3"/>
  <ellipse cx="26" cy="45" rx="12" ry="9" fill="#0f172a" opacity="0.3"/>

  <!-- Boulder 1 (Top Left) -->
  <polygon points="12,18 20,11 29,15 31,24 22,28 13,24" fill="#4a4e55" stroke="#0f172a" stroke-width="1"/>
  <polygon points="12,18 20,11 29,15 22,20" fill="#6b6f75"/>
  <polygon points="12,18 20,11 16,16" fill="#8a8e94"/>

  <!-- Boulder 2 (Right) -->
  <polygon points="34,26 44,18 55,22 58,33 49,40 37,35" fill="#4a4e55" stroke="#0f172a" stroke-width="1"/>
  <polygon points="34,26 44,18 55,22 46,28" fill="#6b6f75"/>
  <polygon points="34,26 44,18 39,24" fill="#8a8e94"/>

  <!-- Boulder 3 (Bottom) -->
  <polygon points="16,42 24,34 35,37 36,48 27,53 17,49" fill="#4a4e55" stroke="#0f172a" stroke-width="1"/>
  <polygon points="16,42 24,34 35,37 26,43" fill="#6b6f75"/>
  <polygon points="16,42 24,34 20,40" fill="#8a8e94"/>

  <!-- Small Chunks & Pebbles -->
  <polygon points="8,32 12,29 14,34 9,36" fill="#6b6f75" stroke="#0f172a" stroke-width="0.8"/>
  <polygon points="41,12 45,9 47,13 42,15" fill="#8a8e94" stroke="#0f172a" stroke-width="0.8"/>
  <polygon points="31,48 35,46 36,50 32,52" fill="#6b6f75" stroke="#0f172a" stroke-width="0.8"/>
  <polygon points="48,46 53,44 54,49 49,51" fill="#4a4e55" stroke="#0f172a" stroke-width="0.8"/>
  <circle cx="29" cy="31" r="2.5" fill="#6b6f75" stroke="#0f172a" stroke-width="0.8"/>
  <circle cx="21" cy="33" r="1.5" fill="#8a8e94"/>
  <circle cx="41" cy="24" r="1.5" fill="#8a8e94"/>
  <circle cx="16" cy="11" r="1.2" fill="#6b6f75"/>
</svg>
