<svg xmlns="http://www.w3.org/2000/svg" version="1.1" width="64" height="64" viewBox="0 0 64 64">

<path d="M20 7 H51 V63 H20Z" fill="#0f172a" stroke="none" stroke-width="0" stroke-linejoin="round" stroke-linecap="round" opacity="0.4"/>
<path d="M19 3 H45 L47 6 V58 L44 60 H18 L17 57 V5Z" fill="#3b4252" stroke="#0f172a" stroke-width="1" stroke-linejoin="round" stroke-linecap="round" />
<path d="M19 4 H44 L42 6 H20 V56 L18 58 V6Z" fill="#4c566a" stroke="#0f172a" stroke-width="0" stroke-linejoin="round" stroke-linecap="round" />
<path d="M45 7 V58 H21 L23 56 H43 V10Z" fill="#2b2f3a" stroke="#0f172a" stroke-width="0" stroke-linejoin="round" stroke-linecap="round" />
<path d="M22 8 H42 V54 L32 58 L22 54Z" fill="#4c566a" stroke="#0f172a" stroke-width="1" stroke-linejoin="round" stroke-linecap="round" />
<path d="M27 16 L32 11 L37 16 L36 25 L32 28 L28 25Z" fill="#6b7480" stroke="#0f172a" stroke-width="1" stroke-linejoin="round" stroke-linecap="round" />
<path d="M25 33 H39 L36 46 H28Z" fill="#3b4252" stroke="#0f172a" stroke-width="1" stroke-linejoin="round" stroke-linecap="round" />
<path d="M24 30 L32 34 L40 30 M32 34 V49" fill="none" stroke="#6b7480" stroke-width="1" stroke-linejoin="round" stroke-linecap="round" />
</svg>
